<svg xmlns="http://www.w3.org/2000/svg" viewBox="0 0 400 400" width="400" height="400" fill="none">
<defs>
  <radialGradient id="c-bg" cx="50%" cy="50%" r="50%">
    <stop offset="0%"   stop-color="#f0e8ff"/>
    <stop offset="100%" stop-color="#e0d0ff"/>
  </radialGradient>
  <radialGradient id="c-center" cx="42%" cy="36%" r="65%">
    <stop offset="0%"   stop-color="#3a0a9a"/>
    <stop offset="100%" stop-color="#1a0550"/>
  </radialGradient>
  <radialGradient id="c-voted" cx="45%" cy="38%" r="65%">
    <stop offset="0%"   stop-color="#6020c0"/>
    <stop offset="100%" stop-color="#300880"/>
  </radialGradient>
  <radialGradient id="c-pending" cx="50%" cy="50%" r="50%">
    <stop offset="0%"   stop-color="#2a0870"/>
    <stop offset="100%" stop-color="#140440"/>
  </radialGradient>
  <filter id="c-glow" x="-40%" y="-40%" width="180%" height="180%">
    <feGaussianBlur stdDeviation="4" result="blur"/>
    <feMerge><feMergeNode in="blur"/><feMergeNode in="SourceGraphic"/></feMerge>
  </filter>
  <filter id="c-glow-sm" x="-30%" y="-30%" width="160%" height="160%">
    <feGaussianBlur stdDeviation="2.5" result="blur"/>
    <feMerge><feMergeNode in="blur"/><feMergeNode in="SourceGraphic"/></feMerge>
  </filter>
</defs>
<circle cx="200" cy="200" r="195" fill="url(#c-bg)"/>
<circle cx="200" cy="200" r="174" fill="none" stroke="#8040e0" stroke-width="1" stroke-opacity="0.1"/>
<circle cx="200" cy="200" r="162" fill="none" stroke="#8040e0" stroke-width="1" stroke-opacity="0.15"/>
<circle cx="200" cy="200" r="152" fill="none" stroke="#8040e0" stroke-width="1" stroke-opacity="0.18"/>
<line x1="200.0" y1="54.0" x2="346.0" y2="200.0" stroke="#7030c8" stroke-width="0.8" stroke-opacity="0.18"/>
<line x1="200.0" y1="54.0" x2="303.2" y2="303.2" stroke="#7030c8" stroke-width="0.8" stroke-opacity="0.1"/>
<line x1="200.0" y1="54.0" x2="96.8" y2="303.2" stroke="#7030c8" stroke-width="0.8" stroke-opacity="0.1"/>
<line x1="200.0" y1="54.0" x2="54.0" y2="200.0" stroke="#7030c8" stroke-width="0.8" stroke-opacity="0.1"/>
<line x1="200.0" y1="54.0" x2="96.8" y2="96.8" stroke="#7030c8" stroke-width="0.8" stroke-opacity="0.1"/>
<line x1="303.2" y1="96.8" x2="303.2" y2="303.2" stroke="#7030c8" stroke-width="0.8" stroke-opacity="0.18"/>
<line x1="303.2" y1="96.8" x2="200.0" y2="346.0" stroke="#7030c8" stroke-width="0.8" stroke-opacity="0.1"/>
<line x1="303.2" y1="96.8" x2="54.0" y2="200.0" stroke="#7030c8" stroke-width="0.8" stroke-opacity="0.1"/>
<line x1="303.2" y1="96.8" x2="96.8" y2="96.8" stroke="#7030c8" stroke-width="0.8" stroke-opacity="0.1"/>
<line x1="346.0" y1="200.0" x2="200.0" y2="346.0" stroke="#7030c8" stroke-width="0.8" stroke-opacity="0.18"/>
<line x1="346.0" y1="200.0" x2="96.8" y2="303.2" stroke="#7030c8" stroke-width="0.8" stroke-opacity="0.1"/>
<line x1="346.0" y1="200.0" x2="96.8" y2="96.8" stroke="#7030c8" stroke-width="0.8" stroke-opacity="0.1"/>
<line x1="303.2" y1="303.2" x2="96.8" y2="303.2" stroke="#7030c8" stroke-width="0.8" stroke-opacity="0.18"/>
<line x1="303.2" y1="303.2" x2="54.0" y2="200.0" stroke="#7030c8" stroke-width="0.8" stroke-opacity="0.1"/>
<line x1="200.0" y1="346.0" x2="54.0" y2="200.0" stroke="#7030c8" stroke-width="0.8" stroke-opacity="0.18"/>
<line x1="200.0" y1="346.0" x2="96.8" y2="96.8" stroke="#7030c8" stroke-width="0.8" stroke-opacity="0.1"/>
<line x1="96.8" y1="303.2" x2="96.8" y2="96.8" stroke="#7030c8" stroke-width="0.8" stroke-opacity="0.18"/>
<line x1="200" y1="200" x2="200.0" y2="54.0" stroke="#8040d0" stroke-width="1.2" stroke-opacity="0.22" stroke-dasharray="5 5"/>
<line x1="200" y1="200" x2="303.2" y2="96.8" stroke="#8040d0" stroke-width="1.2" stroke-opacity="0.22" stroke-dasharray="5 5"/>
<line x1="200" y1="200" x2="346.0" y2="200.0" stroke="#8040d0" stroke-width="1.2" stroke-opacity="0.22" stroke-dasharray="5 5"/>
<line x1="200" y1="200" x2="303.2" y2="303.2" stroke="#8040d0" stroke-width="1.2" stroke-opacity="0.22" stroke-dasharray="5 5"/>
<line x1="200" y1="200" x2="200.0" y2="346.0" stroke="#8040d0" stroke-width="1.2" stroke-opacity="0.22" stroke-dasharray="5 5"/>
<line x1="200" y1="200" x2="96.8" y2="303.2" stroke="#8040d0" stroke-width="1.2" stroke-opacity="0.22" stroke-dasharray="5 5"/>
<line x1="200" y1="200" x2="54.0" y2="200.0" stroke="#8040d0" stroke-width="1.2" stroke-opacity="0.22" stroke-dasharray="5 5"/>
<line x1="200" y1="200" x2="96.8" y2="96.8" stroke="#8040d0" stroke-width="1.2" stroke-opacity="0.22" stroke-dasharray="5 5"/>
<circle cx="200.0" cy="54.0" r="30" fill="#9050e0" fill-opacity="0.22"/>
<circle cx="200.0" cy="54.0" r="20" fill="url(#c-voted)" stroke="#c080ff" stroke-width="2.5" filter="url(#c-glow-sm)"/>
<polyline points="193.0,55.0 198.0,61.0 208.0,48.0" stroke="#e0b8ff" stroke-width="2.5" stroke-linecap="round" stroke-linejoin="round"/>
<text x="200.0" y="35.5" text-anchor="middle" font-family="ui-monospace,monospace" font-size="8.5" font-weight="700" fill="#7040b0" letter-spacing="0.08em">GOV·A</text>
<circle cx="303.2" cy="96.8" r="30" fill="#9050e0" fill-opacity="0.22"/>
<circle cx="303.2" cy="96.8" r="20" fill="url(#c-voted)" stroke="#c080ff" stroke-width="2.5" filter="url(#c-glow-sm)"/>
<polyline points="296.2,97.8 301.2,103.8 311.2,90.8" stroke="#e0b8ff" stroke-width="2.5" stroke-linecap="round" stroke-linejoin="round"/>
<text x="318.8" y="84.7" text-anchor="start" font-family="ui-monospace,monospace" font-size="8.5" font-weight="700" fill="#7040b0" letter-spacing="0.08em">GOV·B</text>
<circle cx="346.0" cy="200.0" r="30" fill="#9050e0" fill-opacity="0.22"/>
<circle cx="346.0" cy="200.0" r="20" fill="url(#c-voted)" stroke="#c080ff" stroke-width="2.5" filter="url(#c-glow-sm)"/>
<polyline points="339.0,201.0 344.0,207.0 354.0,194.0" stroke="#e0b8ff" stroke-width="2.5" stroke-linecap="round" stroke-linejoin="round"/>
<text x="368.0" y="203.5" text-anchor="start" font-family="ui-monospace,monospace" font-size="8.5" font-weight="700" fill="#7040b0" letter-spacing="0.08em">GOV·C</text>
<circle cx="303.2" cy="303.2" r="30" fill="#9050e0" fill-opacity="0.22"/>
<circle cx="303.2" cy="303.2" r="20" fill="url(#c-voted)" stroke="#c080ff" stroke-width="2.5" filter="url(#c-glow-sm)"/>
<polyline points="296.2,304.2 301.2,310.2 311.2,297.2" stroke="#e0b8ff" stroke-width="2.5" stroke-linecap="round" stroke-linejoin="round"/>
<text x="318.8" y="322.3" text-anchor="start" font-family="ui-monospace,monospace" font-size="8.5" font-weight="700" fill="#7040b0" letter-spacing="0.08em">GOV·D</text>
<circle cx="200.0" cy="346.0" r="30" fill="#5020a0" fill-opacity="0.12"/>
<circle cx="200.0" cy="346.0" r="20" fill="url(#c-pending)" stroke="#7040b0" stroke-width="1.5" filter="url(#c-glow-sm)"/>
<circle cx="200.0" cy="346.0" r="4.5" fill="#8050c0"/>
<text x="200.0" y="371.5" text-anchor="middle" font-family="ui-monospace,monospace" font-size="8.5" font-weight="700" fill="#7040b0" letter-spacing="0.08em">GOV·E</text>
<circle cx="96.8" cy="303.2" r="30" fill="#9050e0" fill-opacity="0.22"/>
<circle cx="96.8" cy="303.2" r="20" fill="url(#c-voted)" stroke="#c080ff" stroke-width="2.5" filter="url(#c-glow-sm)"/>
<polyline points="89.8,304.2 94.8,310.2 104.8,297.2" stroke="#e0b8ff" stroke-width="2.5" stroke-linecap="round" stroke-linejoin="round"/>
<text x="81.2" y="322.3" text-anchor="end" font-family="ui-monospace,monospace" font-size="8.5" font-weight="700" fill="#7040b0" letter-spacing="0.08em">GOV·F</text>
<circle cx="54.0" cy="200.0" r="30" fill="#9050e0" fill-opacity="0.22"/>
<circle cx="54.0" cy="200.0" r="20" fill="url(#c-voted)" stroke="#c080ff" stroke-width="2.5" filter="url(#c-glow-sm)"/>
<polyline points="47.0,201.0 52.0,207.0 62.0,194.0" stroke="#e0b8ff" stroke-width="2.5" stroke-linecap="round" stroke-linejoin="round"/>
<text x="32.0" y="203.5" text-anchor="end" font-family="ui-monospace,monospace" font-size="8.5" font-weight="700" fill="#7040b0" letter-spacing="0.08em">GOV·G</text>
<circle cx="96.8" cy="96.8" r="30" fill="#5020a0" fill-opacity="0.12"/>
<circle cx="96.8" cy="96.8" r="20" fill="url(#c-pending)" stroke="#7040b0" stroke-width="1.5" filter="url(#c-glow-sm)"/>
<circle cx="96.8" cy="96.8" r="4.5" fill="#8050c0"/>
<text x="81.2" y="84.7" text-anchor="end" font-family="ui-monospace,monospace" font-size="8.5" font-weight="700" fill="#7040b0" letter-spacing="0.08em">GOV·H</text>
<circle cx="200" cy="200" r="85" fill="#9040e0" fill-opacity="0.1"/>
<circle cx="200" cy="200" r="52" fill="url(#c-center)" stroke="#c080ff" stroke-width="3.5" filter="url(#c-glow)"/>
<circle cx="200" cy="200" r="44" fill="none" stroke="#c080ff" stroke-width="0.8" stroke-opacity="0.3"/>
<circle cx="200" cy="200" r="64" stroke="#c080ff" stroke-width="0.7" stroke-opacity="0.25" fill="none"/>
<path d="M 200.0,136.0 A 64,64 0 1,1 136.0,200.0" stroke="#d8a0ff" stroke-width="4" stroke-linecap="round" fill="none" filter="url(#c-glow-sm)"/>
<polyline points="183.0,204.0 197.0,218.0 221.0,184.0" stroke="#e8c8ff" stroke-width="5" stroke-linecap="round" stroke-linejoin="round" filter="url(#c-glow)"/>
<text x="200" y="188" text-anchor="middle" font-family="ui-monospace,monospace" font-size="13" font-weight="800" fill="#f0d8ff" letter-spacing="0.05em">6 / 8</text>
<text x="200" y="206" text-anchor="middle" font-family="system-ui,sans-serif" font-size="9.5" font-weight="700" fill="#c898f8" letter-spacing="0.06em">CONSENSUS</text>
<text x="200" y="220" text-anchor="middle" font-family="system-ui,sans-serif" font-size="8.5" font-weight="500" fill="#a070e0" letter-spacing="0.08em" opacity="0.85">VALIDATORS</text>
</svg>