<svg xmlns="http://www.w3.org/2000/svg" viewBox="0 0 400 415" width="400" height="415" fill="none">
<defs>
  <radialGradient id="ocean" cx="42%" cy="36%" r="65%">
    <stop offset="0%"   stop-color="#bde8f4"/>
    <stop offset="55%"  stop-color="#8acfe8"/>
    <stop offset="100%" stop-color="#5ab8d6"/>
  </radialGradient>
  <filter id="land-sh">
    <feDropShadow dx="1" dy="2" stdDeviation="2.5" flood-color="#006080" flood-opacity="0.3"/>
  </filter>
  <clipPath id="gclip"><circle cx="200" cy="205" r="148"/></clipPath>
  <linearGradient id="arc-a" gradientUnits="userSpaceOnUse" x1="80" y1="180" x2="320" y2="220">
    <stop offset="0%"   stop-color="#007bab" stop-opacity="0.9"/>
    <stop offset="100%" stop-color="#00bcd4" stop-opacity="0.6"/>
  </linearGradient>
  <linearGradient id="arc-b" gradientUnits="userSpaceOnUse" x1="130" y1="100" x2="300" y2="290">
    <stop offset="0%"   stop-color="#009688" stop-opacity="0.9"/>
    <stop offset="100%" stop-color="#26c6da" stop-opacity="0.6"/>
  </linearGradient>
</defs>
<circle cx="200" cy="205" r="162" fill="none" stroke="#5ab8d6" stroke-width="8" stroke-opacity="0.12"/>
<circle cx="200" cy="205" r="155" fill="none" stroke="#5ab8d6" stroke-width="3" stroke-opacity="0.18"/>
<circle cx="200" cy="205" r="148" fill="url(#ocean)"/>
<path d="M 135.3,338.1 L 137.2,339.0 L 139.4,339.8 L 141.7,340.6 L 144.2,341.4 L 146.8,342.1 L 149.5,342.8 L 152.4,343.5 L 155.5,344.1 L 158.6,344.7 L 161.9,345.2 L 165.3,345.7 L 168.7,346.2 L 172.3,346.6 L 175.9,346.9 L 179.6,347.2 L 183.4,347.5 L 187.2,347.7 L 191.0,347.8 L 194.8,347.9 L 198.7,348.0 L 202.6,347.9 L 206.4,347.9 L 210.3,347.8 L 214.1,347.6 L 217.9,347.4 L 221.6,347.1 L 225.3,346.8 L 228.9,346.4 L 232.4,346.0 L 235.9,345.6 L 239.2,345.0 L 242.4,344.5 L 245.6,343.9 L 248.5,343.3 L 251.4,342.6 L 254.1,341.9 L 256.7,341.1 L 259.1,340.3 L 261.3,339.5 L 263.4,338.7 L 265.3,337.8" stroke="#2a8bad" stroke-width="0.5" stroke-opacity="0.18" fill="none" clip-path="url(#gclip)"/>
<path d="M 74.2,282.8 L 75.6,284.5 L 77.4,286.2 L 79.6,287.8 L 82.0,289.4 L 84.8,291.0 L 87.9,292.6 L 91.3,294.1 L 95.0,295.5 L 99.0,296.9 L 103.3,298.2 L 107.8,299.5 L 112.6,300.7 L 117.6,301.9 L 122.9,303.0 L 128.3,304.0 L 134.0,304.9 L 139.8,305.8 L 145.8,306.5 L 152.0,307.2 L 158.3,307.8 L 164.7,308.4 L 171.2,308.8 L 177.7,309.1 L 184.4,309.4 L 191.1,309.6 L 197.8,309.6 L 204.5,309.6 L 211.2,309.5 L 217.8,309.3 L 224.5,309.0 L 231.0,308.7 L 237.5,308.2 L 243.8,307.7 L 250.1,307.0 L 256.2,306.3 L 262.1,305.5 L 267.9,304.6 L 273.5,303.7 L 278.9,302.6 L 284.1,301.5 L 289.0,300.3 L 293.7,299.1 L 298.2,297.8 L 302.4,296.4 L 306.3,295.0 L 309.9,293.6 L 313.2,292.1 L 316.2,290.5 L 318.8,288.9 L 321.2,287.3 L 323.2,285.6 L 324.9,283.9 L 326.2,282.2" stroke="#2a8bad" stroke-width="0.5" stroke-opacity="0.18" fill="none" clip-path="url(#gclip)"/>
<path d="M 52.1,206.3 L 52.6,208.3 L 53.4,210.3 L 54.7,212.3 L 56.4,214.3 L 58.5,216.2 L 60.9,218.1 L 63.8,220.0 L 67.0,221.8 L 70.6,223.6 L 74.5,225.3 L 78.8,227.0 L 83.4,228.6 L 88.3,230.1 L 93.5,231.6 L 99.1,233.0 L 104.9,234.3 L 110.9,235.6 L 117.2,236.8 L 123.8,237.8 L 130.5,238.8 L 137.5,239.7 L 144.6,240.5 L 151.8,241.2 L 159.2,241.8 L 166.7,242.3 L 174.3,242.7 L 182.0,243.0 L 189.7,243.2 L 197.4,243.3 L 205.2,243.3 L 212.9,243.2 L 220.6,242.9 L 228.2,242.6 L 235.8,242.2 L 243.3,241.6 L 250.6,241.0 L 257.8,240.3 L 264.9,239.4 L 271.8,238.5 L 278.4,237.5 L 284.9,236.4 L 291.1,235.2 L 297.1,233.9 L 302.8,232.6 L 308.2,231.1 L 313.4,229.6 L 318.2,228.1 L 322.7,226.4 L 326.9,224.7 L 330.7,223.0 L 334.1,221.2 L 337.2,219.3 L 339.9,217.5 L 342.3,215.6 L 344.2,213.6 L 345.8,211.7 L 346.9,209.7 L 347.6,207.7 L 348.0,205.7" stroke="#2a8bad" stroke-width="0.8" stroke-opacity="0.35" fill="none" clip-path="url(#gclip)"/>
<path d="M 72.8,129.5 L 72.1,131.2 L 71.8,132.9 L 71.9,134.7 L 72.3,136.4 L 73.1,138.1 L 74.2,139.9 L 75.6,141.5 L 77.4,143.2 L 79.6,144.9 L 82.0,146.5 L 84.8,148.1 L 87.9,149.6 L 91.3,151.1 L 95.0,152.5 L 99.0,153.9 L 103.3,155.3 L 107.8,156.6 L 112.6,157.8 L 117.6,158.9 L 122.9,160.0 L 128.3,161.0 L 134.0,162.0 L 139.8,162.8 L 145.8,163.6 L 152.0,164.3 L 158.3,164.9 L 164.7,165.4 L 171.2,165.8 L 177.7,166.2 L 184.4,166.4 L 191.1,166.6 L 197.8,166.7 L 204.5,166.7 L 211.2,166.6 L 217.8,166.4 L 224.5,166.1 L 231.0,165.7 L 237.5,165.2 L 243.8,164.7 L 250.1,164.1 L 256.2,163.3 L 262.1,162.5 L 267.9,161.7 L 273.5,160.7 L 278.9,159.7 L 284.1,158.6 L 289.0,157.4 L 293.7,156.1 L 298.2,154.8 L 302.4,153.5 L 306.3,152.1 L 309.9,150.6 L 313.2,149.1 L 316.2,147.5 L 318.8,145.9 L 321.2,144.3 L 323.2,142.7 L 324.9,141.0 L 326.2,139.3 L 327.2,137.6 L 327.9,135.8 L 328.2,134.1 L 328.1,132.4 L 327.7,130.6 L 326.9,128.9" stroke="#2a8bad" stroke-width="0.5" stroke-opacity="0.18" fill="none" clip-path="url(#gclip)"/>
<path d="M 132.9,73.1 L 131.4,74.0 L 130.0,75.0 L 128.9,75.9 L 127.9,76.9 L 127.1,77.9 L 126.6,78.9 L 126.2,79.9 L 126.0,80.9 L 126.0,81.9 L 126.3,82.9 L 126.7,83.9 L 127.4,84.9 L 128.2,85.8 L 129.2,86.8 L 130.5,87.7 L 131.9,88.7 L 133.5,89.6 L 135.3,90.5 L 137.2,91.3 L 139.4,92.2 L 141.7,93.0 L 144.2,93.8 L 146.8,94.5 L 149.5,95.2 L 152.4,95.9 L 155.5,96.5 L 158.6,97.1 L 161.9,97.6 L 165.3,98.1 L 168.7,98.6 L 172.3,99.0 L 175.9,99.3 L 179.6,99.6 L 183.4,99.9 L 187.2,100.1 L 191.0,100.2 L 194.8,100.3 L 198.7,100.3 L 202.6,100.3 L 206.4,100.3 L 210.3,100.2 L 214.1,100.0 L 217.9,99.8 L 221.6,99.5 L 225.3,99.2 L 228.9,98.8 L 232.4,98.4 L 235.9,97.9 L 239.2,97.4 L 242.4,96.9 L 245.6,96.3 L 248.5,95.7 L 251.4,95.0 L 254.1,94.3 L 256.7,93.5 L 259.1,92.7 L 261.3,91.9 L 263.4,91.1 L 265.3,90.2 L 267.1,89.3 L 268.6,88.4 L 270.0,87.4 L 271.1,86.5 L 272.1,85.5 L 272.9,84.5 L 273.4,83.5 L 273.8,82.5 L 274.0,81.5 L 274.0,80.5 L 273.7,79.5 L 273.3,78.5 L 272.6,77.5 L 271.8,76.6 L 270.8,75.6 L 269.5,74.6 L 268.1,73.7 L 266.5,72.8" stroke="#2a8bad" stroke-width="0.5" stroke-opacity="0.18" fill="none" clip-path="url(#gclip)"/>
<path d="M 253.0,66.9 L 249.0,65.5 L 245.0,64.3 L 240.9,63.2 L 236.7,62.4 L 232.5,61.7 L 228.2,61.1 L 223.9,60.8 L 219.6,60.6 L 215.3,60.6 L 210.9,60.8" stroke="#2a8bad" stroke-width="0.5" stroke-opacity="0.18" fill="none" clip-path="url(#gclip)"/>
<path d="M 218.0,58.2 L 215.6,58.1 L 213.3,58.2 L 210.9,58.5 L 208.5,59.0 L 206.1,59.6" stroke="#2a8bad" stroke-width="0.5" stroke-opacity="0.18" fill="none" clip-path="url(#gclip)"/>
<path d="M 198.7,57.0 L 198.8,57.1 L 199.0,57.4 L 199.2,57.8 L 199.4,58.4 L 199.5,59.3" stroke="#2a8bad" stroke-width="0.5" stroke-opacity="0.18" fill="none" clip-path="url(#gclip)"/>
<path d="M 177.1,58.8 L 179.7,58.5 L 182.4,58.4 L 185.0,58.5 L 187.7,58.7 L 190.4,59.1 L 193.2,59.8" stroke="#2a8bad" stroke-width="0.5" stroke-opacity="0.18" fill="none" clip-path="url(#gclip)"/>
<path d="M 136.6,71.2 L 140.7,69.5 L 144.8,67.8 L 148.9,66.4 L 153.2,65.1 L 157.5,64.0 L 161.8,63.0 L 166.2,62.3 L 170.6,61.7 L 175.1,61.2 L 179.6,61.0 L 184.1,60.9 L 188.6,61.0" stroke="#2a8bad" stroke-width="0.5" stroke-opacity="0.18" fill="none" clip-path="url(#gclip)"/>
<path d="M 53.2,223.7 L 52.7,218.8 L 52.3,213.8 L 52.1,208.8 L 52.1,203.8 L 52.3,198.9 L 52.7,193.9 L 53.2,188.9 L 53.9,184.0 L 54.8,179.0 L 55.9,174.1 L 57.1,169.3 L 58.6,164.5 L 60.1,159.7 L 61.9,155.0 L 63.8,150.4 L 65.9,145.8 L 68.2,141.3 L 70.6,136.9 L 73.2,132.5 L 76.0,128.3 L 78.8,124.1 L 81.9,120.0 L 85.1,116.1 L 88.4,112.2 L 91.8,108.5 L 95.4,104.9 L 99.1,101.4 L 103.0,98.0 L 106.9,94.7 L 111.0,91.6 L 115.2,88.7 L 119.4,85.8 L 123.8,83.2 L 128.3,80.6 L 132.9,78.2 L 137.5,76.0 L 142.2,73.9 L 147.0,72.0 L 151.8,70.3 L 156.8,68.7 L 161.7,67.3 L 166.7,66.0 L 171.8,64.9 L 176.9,64.0 L 182.0,63.3 L 187.1,62.7" stroke="#2a8bad" stroke-width="0.5" stroke-opacity="0.18" fill="none" clip-path="url(#gclip)"/>
<path d="M 143.0,341.6 L 139.2,339.9 L 135.4,338.0 L 131.6,335.9 L 128.0,333.7 L 124.5,331.4 L 121.0,328.9 L 117.7,326.2 L 114.4,323.4 L 111.3,320.4 L 108.2,317.3 L 105.3,314.1 L 102.5,310.7 L 99.8,307.2 L 97.2,303.6 L 94.7,299.9 L 92.4,296.0 L 90.2,292.1 L 88.2,288.0 L 86.2,283.8 L 84.5,279.5 L 82.8,275.2 L 81.3,270.7 L 80.0,266.2 L 78.8,261.6 L 77.7,256.9 L 76.8,252.2 L 76.0,247.4 L 75.4,242.6 L 75.0,237.7 L 74.7,232.8 L 74.5,227.8 L 74.5,222.8 L 74.7,217.8 L 75.0,212.8 L 75.4,207.7 L 76.0,202.7 L 76.8,197.6 L 77.7,192.6 L 78.8,187.6 L 80.0,182.6 L 81.3,177.7 L 82.8,172.7 L 84.5,167.8 L 86.2,163.0 L 88.2,158.2 L 90.2,153.4 L 92.4,148.8 L 94.7,144.2 L 97.2,139.6 L 99.8,135.2 L 102.5,130.8 L 105.3,126.5 L 108.2,122.3 L 111.3,118.3 L 114.4,114.3 L 117.7,110.4 L 121.0,106.7 L 124.5,103.0 L 128.0,99.5 L 131.6,96.2 L 135.4,92.9 L 139.2,89.8 L 143.0,86.8 L 147.0,84.0 L 151.0,81.3 L 155.0,78.8 L 159.1,76.4 L 163.3,74.2 L 167.5,72.2 L 171.8,70.3 L 176.1,68.5 L 180.4,67.0 L 184.7,65.6 L 189.1,64.4" stroke="#2a8bad" stroke-width="0.5" stroke-opacity="0.18" fill="none" clip-path="url(#gclip)"/>
<path d="M 179.7,351.6 L 177.4,351.2 L 175.1,350.6 L 172.9,349.8 L 170.6,348.9 L 168.5,347.7 L 166.3,346.4 L 164.2,345.0 L 162.2,343.3 L 160.1,341.5 L 158.2,339.5 L 156.3,337.4 L 154.4,335.1 L 152.6,332.6 L 150.9,330.0 L 149.2,327.2 L 147.6,324.3 L 146.0,321.3 L 144.5,318.0 L 143.1,314.7 L 141.7,311.2 L 140.4,307.6 L 139.2,303.9 L 138.1,300.0 L 137.0,296.1 L 136.0,292.0 L 135.1,287.8 L 134.3,283.5 L 133.6,279.1 L 132.9,274.7 L 132.3,270.1 L 131.8,265.5 L 131.4,260.8 L 131.0,256.0 L 130.8,251.2 L 130.6,246.3 L 130.5,241.3 L 130.5,236.3 L 130.6,231.3 L 130.8,226.2 L 131.0,221.1 L 131.4,216.0 L 131.8,210.9 L 132.3,205.8 L 132.9,200.7 L 133.6,195.5 L 134.3,190.4 L 135.1,185.3 L 136.0,180.3 L 137.0,175.2 L 138.1,170.2 L 139.2,165.3 L 140.4,160.4 L 141.7,155.5 L 143.1,150.7 L 144.5,146.0 L 146.0,141.3 L 147.6,136.7 L 149.2,132.2 L 150.9,127.8 L 152.6,123.5 L 154.4,119.3 L 156.3,115.2 L 158.2,111.2 L 160.1,107.3 L 162.2,103.5 L 164.2,99.9 L 166.3,96.4 L 168.5,93.0 L 170.6,89.7 L 172.9,86.6 L 175.1,83.7 L 177.4,80.8 L 179.7,78.2 L 182.0,75.7 L 184.4,73.3 L 186.7,71.1 L 189.1,69.1 L 191.5,67.2 L 193.9,65.5" stroke="#2a8bad" stroke-width="0.5" stroke-opacity="0.18" fill="none" clip-path="url(#gclip)"/>
<path d="M 201.5,352.9 L 201.7,352.6 L 201.9,352.2 L 202.0,351.6 L 202.2,350.7 L 202.3,349.8 L 202.5,348.6 L 202.7,347.3 L 202.8,345.7 L 203.0,344.1 L 203.1,342.2 L 203.3,340.2 L 203.4,338.0 L 203.5,335.7 L 203.7,333.2 L 203.8,330.5 L 203.9,327.7 L 204.0,324.7 L 204.1,321.6 L 204.2,318.4 L 204.3,315.0 L 204.4,311.4 L 204.5,307.8 L 204.6,304.0 L 204.7,300.1 L 204.8,296.1 L 204.8,292.0 L 204.9,287.7 L 204.9,283.4 L 205.0,279.0 L 205.0,274.5 L 205.1,269.9 L 205.1,265.2 L 205.1,260.4 L 205.1,255.6 L 205.2,250.7 L 205.2,245.8 L 205.2,240.8 L 205.2,235.7 L 205.1,230.7 L 205.1,225.6 L 205.1,220.4 L 205.1,215.3 L 205.0,210.1 L 205.0,205.0 L 204.9,199.8 L 204.9,194.7 L 204.8,189.5 L 204.8,184.4 L 204.7,179.3 L 204.6,174.2 L 204.5,169.2 L 204.4,164.2 L 204.3,159.2 L 204.2,154.4 L 204.1,149.5 L 204.0,144.8 L 203.9,140.1 L 203.8,135.5 L 203.7,131.0 L 203.5,126.6 L 203.4,122.2 L 203.3,118.0 L 203.1,113.9 L 203.0,109.9 L 202.8,106.0 L 202.7,102.2 L 202.5,98.5 L 202.3,95.0 L 202.2,91.6 L 202.0,88.4 L 201.9,85.3 L 201.7,82.3 L 201.5,79.5 L 201.3,76.8 L 201.2,74.3 L 201.0,72.0 L 200.8,69.8 L 200.6,67.8 L 200.5,65.9" stroke="#2a8bad" stroke-width="0.5" stroke-opacity="0.18" fill="none" clip-path="url(#gclip)"/>
<path d="M 225.5,350.7 L 228.1,350.1 L 230.6,349.3 L 233.1,348.3 L 235.6,347.1 L 238.0,345.8 L 240.4,344.3 L 242.7,342.6 L 245.0,340.7 L 247.2,338.7 L 249.4,336.5 L 251.5,334.2 L 253.5,331.7 L 255.5,329.1 L 257.4,326.3 L 259.2,323.3 L 261.0,320.2 L 262.6,317.0 L 264.2,313.6 L 265.8,310.1 L 267.2,306.5 L 268.6,302.7 L 269.9,298.8 L 271.1,294.9 L 272.2,290.8 L 273.2,286.6 L 274.2,282.3 L 275.0,277.9 L 275.8,273.4 L 276.4,268.8 L 277.0,264.2 L 277.5,259.4 L 277.8,254.7 L 278.1,249.8 L 278.3,244.9 L 278.4,240.0 L 278.4,235.0 L 278.3,230.0 L 278.1,224.9 L 277.8,219.8 L 277.5,214.7 L 277.0,209.6 L 276.4,204.5 L 275.8,199.4 L 275.0,194.3 L 274.2,189.2 L 273.2,184.1 L 272.2,179.0 L 271.1,174.0 L 269.9,169.0 L 268.6,164.1 L 267.2,159.2 L 265.8,154.4 L 264.2,149.6 L 262.6,144.9 L 261.0,140.3 L 259.2,135.7 L 257.4,131.3 L 255.5,126.9 L 253.5,122.6 L 251.5,118.4 L 249.4,114.3 L 247.2,110.4 L 245.0,106.5 L 242.7,102.8 L 240.4,99.2 L 238.0,95.7 L 235.6,92.4 L 233.1,89.2 L 230.6,86.1 L 228.1,83.2 L 225.5,80.4 L 222.9,77.8 L 220.3,75.3 L 217.6,73.0 L 215.0,70.9 L 212.3,68.9 L 209.6,67.1 L 206.8,65.4" stroke="#2a8bad" stroke-width="0.5" stroke-opacity="0.18" fill="none" clip-path="url(#gclip)"/>
<path d="M 267.3,336.8 L 271.2,334.7 L 275.0,332.4 L 278.6,330.0 L 282.2,327.4 L 285.7,324.7 L 289.1,321.8 L 292.4,318.8 L 295.6,315.6 L 298.6,312.4 L 301.6,308.9 L 304.4,305.4 L 307.0,301.7 L 309.6,297.9 L 312.0,294.0 L 314.3,290.0 L 316.4,285.9 L 318.4,281.7 L 320.3,277.4 L 322.0,273.0 L 323.6,268.5 L 325.0,264.0 L 326.2,259.4 L 327.3,254.7 L 328.3,249.9 L 329.1,245.1 L 329.7,240.3 L 330.2,235.4 L 330.5,230.4 L 330.7,225.5 L 330.7,220.5 L 330.5,215.5 L 330.2,210.5 L 329.7,205.4 L 329.1,200.4 L 328.3,195.4 L 327.3,190.4 L 326.2,185.4 L 325.0,180.4 L 323.6,175.5 L 322.0,170.6 L 320.3,165.7 L 318.4,160.9 L 316.4,156.1 L 314.3,151.4 L 312.0,146.8 L 309.6,142.2 L 307.0,137.7 L 304.4,133.3 L 301.6,129.0 L 298.6,124.8 L 295.6,120.7 L 292.4,116.6 L 289.1,112.7 L 285.7,108.9 L 282.2,105.2 L 278.6,101.7 L 275.0,98.2 L 271.2,94.9 L 267.3,91.7 L 263.4,88.7 L 259.3,85.8 L 255.2,83.0 L 251.1,80.4 L 246.8,78.0 L 242.5,75.7 L 238.2,73.5 L 233.8,71.6 L 229.4,69.8 L 224.9,68.1 L 220.4,66.6 L 215.9,65.3 L 211.4,64.2" stroke="#2a8bad" stroke-width="0.5" stroke-opacity="0.18" fill="none" clip-path="url(#gclip)"/>
<path d="M 346.1,181.3 L 345.2,176.4 L 344.1,171.5 L 342.9,166.7 L 341.4,161.9 L 339.9,157.2 L 338.1,152.5 L 336.2,147.9 L 334.1,143.4 L 331.8,138.9 L 329.4,134.5 L 326.8,130.2 L 324.0,126.0 L 321.2,121.9 L 318.1,117.9 L 314.9,114.0 L 311.6,110.2 L 308.2,106.5 L 304.6,103.0 L 300.9,99.5 L 297.0,96.2 L 293.1,93.1 L 289.0,90.0 L 284.8,87.1 L 280.6,84.4 L 276.2,81.8 L 271.7,79.3 L 267.1,77.0 L 262.5,74.9 L 257.8,72.9 L 253.0,71.1 L 248.2,69.4 L 243.2,67.9 L 238.3,66.6 L 233.3,65.4 L 228.2,64.4 L 223.1,63.6 L 218.0,62.9 L 212.9,62.5" stroke="#2a8bad" stroke-width="0.5" stroke-opacity="0.18" fill="none" clip-path="url(#gclip)"/>
<path d="M 253.0,66.9 L 249.0,65.5 L 245.0,64.3 L 240.9,63.2 L 236.7,62.4 L 232.5,61.7 L 228.2,61.1 L 223.9,60.8 L 219.6,60.6 L 215.3,60.6 L 210.9,60.8" stroke="#2a8bad" stroke-width="0.5" stroke-opacity="0.18" fill="none" clip-path="url(#gclip)"/>
<path d="M 92.6,135.2 L 95.9,132.9 L 112.2,139.4 L 131.6,156.5 L 144.6,181.4 L 152.4,189.9 L 162.7,208.9 L 179.9,212.4 L 182.2,217.6 L 166.7,237.3 L 154.4,251.3 L 145.6,267.1 L 148.0,299.4 L 141.8,306.0 L 136.8,312.2 L 121.6,310.2 L 115.1,299.6 L 104.7,284.1 L 98.2,272.2 L 94.1,246.4 L 88.7,242.5 L 86.9,219.6 L 79.4,211.9 L 69.8,210.5 L 65.3,208.1 L 63.2,198.7 L 61.3,180.0 L 66.5,163.0 L 78.4,147.2 L 91.0,136.8 Z" fill="#1a6b40" stroke="#2eaa60" stroke-width="2" stroke-linejoin="round" clip-path="url(#gclip)" filter="url(#land-sh)"/>
<path d="M 90.6,133.6 L 102.0,116.5 L 108.7,119.9 L 118.4,123.4 L 127.3,121.0 L 128.6,123.7 L 120.5,139.1 L 133.1,141.7 L 145.0,134.0 L 141.7,133.5 L 131.4,141.4 L 135.0,137.1 L 130.4,129.0 L 133.9,122.5 L 133.9,113.2 L 145.4,104.7 L 153.9,100.2 L 159.7,97.3 L 168.7,89.5 L 172.4,81.7 L 167.5,80.7 L 147.8,88.6 L 137.4,96.0 L 126.3,106.2 L 121.1,109.3 L 113.5,108.5 L 112.6,113.5 L 102.7,116.9 L 98.8,120.5 L 92.4,134.6 L 90.6,133.6 Z" fill="#2e6090" stroke="#4a90bb" stroke-width="1.5" stroke-linejoin="round" clip-path="url(#gclip)" filter="url(#land-sh)"/>
<path d="M 141.7,133.5 L 155.7,147.3 L 157.6,147.5 L 153.5,156.9 L 147.4,166.3 L 174.2,158.6 L 171.8,146.3 L 173.4,137.0 L 184.7,137.5 L 203.3,120.1 L 231.8,108.3 L 249.5,95.4 L 280.7,94.7 L 294.2,98.9 L 302.0,110.0 L 307.8,122.2 L 314.6,133.2 L 304.8,130.2 L 311.8,144.0 L 320.5,162.7 L 315.1,170.8 L 309.6,178.3 L 309.0,189.3 L 304.8,206.4 L 306.4,226.6 L 298.7,220.9 L 295.6,208.6 L 291.4,193.8 L 276.7,180.9 L 272.2,179.0 L 270.5,171.5 L 282.2,164.2 L 280.7,159.3 L 241.0,150.1 L 230.3,136.7 L 203.8,137.8 L 191.9,147.1 L 184.7,137.5 L 173.4,137.0 L 141.7,133.5 Z" fill="#1e5e88" stroke="#3a85b8" stroke-width="1.5" stroke-linejoin="round" clip-path="url(#gclip)" filter="url(#land-sh)"/>
<path d="M 147.4,166.3 L 153.1,184.8 L 162.7,208.9 L 180.0,207.2 L 200.0,184.4 L 197.7,176.8 L 195.4,176.7 L 183.5,181.6 L 177.7,166.2 L 176.1,161.1 L 161.6,157.7 L 147.4,166.3 Z" fill="#2a8050" stroke="#38b870" stroke-width="1.5" stroke-linejoin="round" clip-path="url(#gclip)" filter="url(#land-sh)"/>
<path d="M 218.5,176.4 L 223.7,183.9 L 224.2,191.6 L 239.4,203.6 L 247.7,221.0 L 250.1,220.7 L 254.6,215.2 L 254.0,207.4 L 267.4,187.6 L 268.6,182.2 L 276.2,178.4 L 270.5,171.5 L 244.7,169.7 L 227.2,171.0 L 218.5,176.4 Z" fill="#1a6b40" stroke="#2eaa60" stroke-width="1.5" stroke-linejoin="round" clip-path="url(#gclip)" filter="url(#land-sh)"/>
<path d="M 177.4,271.7 L 172.6,276.1 L 165.9,284.5 L 164.5,292.9 L 167.6,299.1 L 174.4,299.5 L 176.2,293.5 L 175.6,285.1 L 180.0,276.4 L 177.4,271.7 Z" fill="#1a6b40" stroke="#2eaa60" stroke-width="1.5" stroke-linejoin="round" clip-path="url(#gclip)" filter="url(#land-sh)"/>
<path d="M 193.7,178.8 L 194.9,179.1 L 196.1,179.5 L 197.3,179.9 L 198.6,180.3 L 199.8,180.7 L 201.0,181.1 L 202.2,181.5 L 203.4,181.9 L 204.7,182.3 L 205.9,182.7 L 207.1,183.1 L 208.3,183.5 L 209.5,183.9 L 210.7,184.3 L 212.0,184.7 L 213.2,185.1 L 214.4,185.5 L 215.6,186.0 L 216.8,186.4 L 218.0,186.8 L 219.2,187.2 L 220.4,187.6 L 221.6,188.1 L 222.9,188.5 L 224.1,188.9 L 225.3,189.3 L 226.5,189.8 L 227.6,190.2 L 228.8,190.6 L 230.0,191.0 L 231.2,191.5 L 232.4,191.9 L 233.6,192.3 L 234.8,192.8 L 236.0,193.2" stroke="url(#arc-a)" stroke-width="1.8" stroke-opacity="0.65" fill="none" clip-path="url(#gclip)"/>
<path d="M 193.7,178.8 L 191.3,176.1 L 188.9,173.5 L 186.5,170.8 L 184.1,168.2 L 181.8,165.7 L 179.4,163.1 L 177.1,160.6 L 174.7,158.1 L 172.4,155.6 L 170.1,153.2 L 167.8,150.8 L 165.6,148.4 L 163.3,146.1 L 161.1,143.7 L 158.9,141.5 L 156.7,139.2 L 154.6,137.0 L 152.5,134.9 L 150.4,132.8 L 148.3,130.7 L 146.3,128.7 L 144.3,126.7 L 142.3,124.8 L 140.4,122.9 L 138.5,121.1 L 136.6,119.3 L 134.8,117.6 L 133.0,115.9 L 131.3,114.3 L 129.6,112.7 L 128.0,111.2 L 126.3,109.7 L 124.8,108.3 L 123.3,107.0 L 121.8,105.7" stroke="url(#arc-b)" stroke-width="1.8" stroke-opacity="0.65" fill="none" clip-path="url(#gclip)"/>
<path d="M 193.7,178.8 L 197.3,180.1 L 201.0,181.4 L 204.6,182.7 L 208.2,184.1 L 211.8,185.5 L 215.4,186.9 L 219.0,188.3 L 222.6,189.7 L 226.2,191.1 L 229.8,192.5 L 233.3,194.0 L 236.8,195.4 L 240.3,196.9 L 243.8,198.3 L 247.2,199.8 L 250.6,201.2 L 253.9,202.7 L 257.3,204.2 L 260.6,205.7 L 263.8,207.1 L 267.0,208.6 L 270.2,210.1 L 273.3,211.5 L 276.3,213.0 L 279.3,214.4 L 282.3,215.9 L 285.2,217.3 L 288.0,218.8 L 290.8,220.2 L 293.5,221.6 L 296.2,223.0 L 298.7,224.4 L 301.3,225.7 L 303.7,227.1 L 306.1,228.5" stroke="url(#arc-a)" stroke-width="1.8" stroke-opacity="0.65" fill="none" clip-path="url(#gclip)"/>
<path d="M 146.5,243.9 L 147.7,242.2 L 148.9,240.4 L 150.1,238.5 L 151.3,236.7 L 152.5,234.9 L 153.8,233.1 L 155.0,231.2 L 156.3,229.4 L 157.6,227.5 L 158.9,225.7 L 160.2,223.8 L 161.5,221.9 L 162.8,220.1 L 164.2,218.2 L 165.5,216.3 L 166.8,214.4 L 168.2,212.5 L 169.6,210.7 L 170.9,208.8 L 172.3,206.9 L 173.7,205.0 L 175.1,203.1 L 176.5,201.2 L 177.9,199.3 L 179.3,197.4 L 180.8,195.6 L 182.2,193.7 L 183.6,191.8 L 185.0,189.9 L 186.5,188.0 L 187.9,186.2 L 189.4,184.3 L 190.8,182.5 L 192.2,180.6 L 193.7,178.8" stroke="url(#arc-b)" stroke-width="1.8" stroke-opacity="0.65" fill="none" clip-path="url(#gclip)"/>
<path d="M 146.5,243.9 L 144.7,239.8 L 142.9,235.7 L 141.2,231.5 L 139.6,227.3 L 138.0,223.0 L 136.5,218.8 L 135.0,214.5 L 133.6,210.2 L 132.2,205.9 L 130.9,201.7 L 129.7,197.4 L 128.6,193.1 L 127.5,188.9 L 126.5,184.6 L 125.5,180.4 L 124.6,176.2 L 123.8,172.0 L 123.1,167.9 L 122.4,163.8 L 121.8,159.7 L 121.3,155.7 L 120.8,151.7 L 120.5,147.7 L 120.2,143.9 L 119.9,140.0 L 119.8,136.3 L 119.7,132.6 L 119.7,129.0 L 119.8,125.4 L 119.9,121.9 L 120.1,118.5 L 120.4,115.2 L 120.8,111.9 L 121.3,108.8 L 121.8,105.7" stroke="url(#arc-a)" stroke-width="1.8" stroke-opacity="0.65" fill="none" clip-path="url(#gclip)"/>
<path d="M 80.1,210.9 L 80.4,207.6 L 80.7,204.3 L 81.0,201.0 L 81.4,197.7 L 81.9,194.4 L 82.4,191.2 L 83.0,187.9 L 83.7,184.6 L 84.4,181.4 L 85.2,178.2 L 86.0,174.9 L 86.9,171.7 L 87.8,168.5 L 88.8,165.4 L 89.9,162.2 L 91.0,159.1 L 92.2,156.0 L 93.4,152.9 L 94.7,149.8 L 96.0,146.8 L 97.4,143.8 L 98.8,140.8 L 100.3,137.9 L 101.8,135.0 L 103.4,132.1 L 105.0,129.3 L 106.7,126.5 L 108.4,123.8 L 110.2,121.0 L 112.0,118.4 L 113.9,115.8 L 115.8,113.2 L 117.8,110.6 L 119.7,108.2 L 121.8,105.7" stroke="url(#arc-b)" stroke-width="1.8" stroke-opacity="0.65" fill="none" clip-path="url(#gclip)"/>
<path d="M 80.1,210.9 L 82.4,209.9 L 84.7,208.9 L 87.1,207.9 L 89.5,206.9 L 92.1,205.9 L 94.7,204.9 L 97.4,203.9 L 100.1,202.9 L 103.0,201.9 L 105.9,200.9 L 108.8,199.9 L 111.8,198.9 L 114.9,198.0 L 118.1,197.0 L 121.3,196.0 L 124.5,195.1 L 127.9,194.1 L 131.2,193.1 L 134.6,192.2 L 138.1,191.3 L 141.6,190.3 L 145.1,189.4 L 148.7,188.5 L 152.3,187.6 L 156.0,186.8 L 159.6,185.9 L 163.3,185.0 L 167.1,184.2 L 170.8,183.4 L 174.6,182.6 L 178.4,181.8 L 182.2,181.0 L 186.0,180.2 L 189.9,179.5 L 193.7,178.8" stroke="url(#arc-a)" stroke-width="1.8" stroke-opacity="0.65" fill="none" clip-path="url(#gclip)"/>
<path d="M 236.0,193.2 L 238.3,194.2 L 240.6,195.2 L 242.9,196.2 L 245.2,197.3 L 247.5,198.3 L 249.7,199.3 L 252.0,200.3 L 254.2,201.4 L 256.4,202.4 L 258.6,203.4 L 260.8,204.4 L 263.0,205.5 L 265.1,206.5 L 267.2,207.5 L 269.3,208.5 L 271.4,209.6 L 273.5,210.6 L 275.5,211.6 L 277.5,212.6 L 279.5,213.7 L 281.5,214.7 L 283.4,215.7 L 285.3,216.7 L 287.2,217.7 L 289.1,218.7 L 290.9,219.7 L 292.7,220.7 L 294.5,221.7 L 296.2,222.7 L 297.9,223.7 L 299.6,224.6 L 301.3,225.6 L 302.9,226.6 L 304.5,227.5 L 306.1,228.5" stroke="url(#arc-b)" stroke-width="1.8" stroke-opacity="0.65" fill="none" clip-path="url(#gclip)"/>
<path d="M 306.1,228.5 L 306.8,226.1 L 307.6,223.7 L 308.3,221.3 L 308.9,218.8 L 309.6,216.4 L 310.2,214.0 L 310.7,211.6 L 311.3,209.2 L 311.8,206.7 L 312.3,204.3 L 312.7,201.9 L 313.1,199.5 L 313.5,197.0 L 313.8,194.6 L 314.2,192.2 L 314.4,189.8 L 314.7,187.4 L 314.9,185.0 L 315.1,182.6 L 315.2,180.2 L 315.3,177.8 L 315.4,175.4 L 315.4,173.1 L 315.4,170.7 L 315.4,168.3 L 315.3,166.0 L 315.2,163.7 L 315.1,161.4 L 315.0,159.1 L 314.8,156.8 L 314.5,154.5 L 314.3,152.2 L 314.0,150.0 L 313.7,147.8 L 313.3,145.6" stroke="url(#arc-a)" stroke-width="1.8" stroke-opacity="0.65" fill="none" clip-path="url(#gclip)"/>
<path d="M 133.6,297.9 L 134.6,295.3 L 135.7,292.6 L 136.8,289.8 L 138.0,287.0 L 139.2,284.1 L 140.5,281.1 L 141.8,278.1 L 143.2,275.0 L 144.6,271.8 L 146.1,268.6 L 147.6,265.3 L 149.2,262.0 L 150.8,258.7 L 152.4,255.3 L 154.1,251.8 L 155.8,248.3 L 157.6,244.8 L 159.4,241.3 L 161.2,237.7 L 163.1,234.1 L 165.0,230.4 L 166.9,226.8 L 168.8,223.1 L 170.8,219.4 L 172.8,215.7 L 174.8,212.0 L 176.8,208.3 L 178.9,204.6 L 181.0,200.9 L 183.1,197.2 L 185.2,193.5 L 187.3,189.8 L 189.4,186.1 L 191.5,182.4 L 193.7,178.8" stroke="url(#arc-b)" stroke-width="1.8" stroke-opacity="0.65" fill="none" clip-path="url(#gclip)"/>
<path d="M 87.7,139.1 L 89.7,139.5 L 91.8,140.0 L 94.0,140.5 L 96.2,141.1 L 98.5,141.7 L 100.9,142.3 L 103.4,143.0 L 106.0,143.8 L 108.6,144.6 L 111.2,145.4 L 114.0,146.3 L 116.8,147.3 L 119.7,148.2 L 122.6,149.2 L 125.6,150.3 L 128.6,151.4 L 131.7,152.5 L 134.9,153.7 L 138.0,154.9 L 141.3,156.2 L 144.6,157.5 L 147.9,158.8 L 151.3,160.2 L 154.7,161.6 L 158.1,163.0 L 161.6,164.4 L 165.0,165.9 L 168.6,167.4 L 172.1,169.0 L 175.7,170.5 L 179.2,172.1 L 182.8,173.8 L 186.4,175.4 L 190.1,177.1 L 193.7,178.8" stroke="url(#arc-a)" stroke-width="1.8" stroke-opacity="0.65" fill="none" clip-path="url(#gclip)"/>
<circle cx="193.7" cy="178.8" r="11" fill="none" stroke="#005f80" stroke-width="1" stroke-opacity="0.4" clip-path="url(#gclip)"/>
<circle cx="146.5" cy="243.9" r="11" fill="none" stroke="#005f80" stroke-width="1" stroke-opacity="0.4" clip-path="url(#gclip)"/>
<circle cx="80.1" cy="210.9" r="11" fill="none" stroke="#005f80" stroke-width="1" stroke-opacity="0.4" clip-path="url(#gclip)"/>
<circle cx="236.0" cy="193.2" r="11" fill="none" stroke="#005f80" stroke-width="1" stroke-opacity="0.4" clip-path="url(#gclip)"/>
<circle cx="306.1" cy="228.5" r="11" fill="none" stroke="#005f80" stroke-width="1" stroke-opacity="0.4" clip-path="url(#gclip)"/>
<circle cx="121.8" cy="105.7" r="11" fill="none" stroke="#005f80" stroke-width="1" stroke-opacity="0.4" clip-path="url(#gclip)"/>
<circle cx="313.3" cy="145.6" r="11" fill="none" stroke="#005f80" stroke-width="1" stroke-opacity="0.4" clip-path="url(#gclip)"/>
<circle cx="133.6" cy="297.9" r="11" fill="none" stroke="#005f80" stroke-width="1" stroke-opacity="0.4" clip-path="url(#gclip)"/>
<circle cx="87.7" cy="139.1" r="11" fill="none" stroke="#005f80" stroke-width="1" stroke-opacity="0.4" clip-path="url(#gclip)"/>
<circle cx="193.7" cy="178.8" r="5.5" fill="#003a50" stroke="#00bcd4" stroke-width="2" clip-path="url(#gclip)"/>
<circle cx="193.7" cy="178.8" r="2.2" fill="white" clip-path="url(#gclip)"/>
<circle cx="146.5" cy="243.9" r="5.5" fill="#003a50" stroke="#00bcd4" stroke-width="2" clip-path="url(#gclip)"/>
<circle cx="146.5" cy="243.9" r="2.2" fill="white" clip-path="url(#gclip)"/>
<circle cx="80.1" cy="210.9" r="5.5" fill="#003a50" stroke="#00bcd4" stroke-width="2" clip-path="url(#gclip)"/>
<circle cx="80.1" cy="210.9" r="2.2" fill="white" clip-path="url(#gclip)"/>
<circle cx="236.0" cy="193.2" r="5.5" fill="#003a50" stroke="#00bcd4" stroke-width="2" clip-path="url(#gclip)"/>
<circle cx="236.0" cy="193.2" r="2.2" fill="white" clip-path="url(#gclip)"/>
<circle cx="306.1" cy="228.5" r="5.5" fill="#003a50" stroke="#00bcd4" stroke-width="2" clip-path="url(#gclip)"/>
<circle cx="306.1" cy="228.5" r="2.2" fill="white" clip-path="url(#gclip)"/>
<circle cx="121.8" cy="105.7" r="5.5" fill="#003a50" stroke="#00bcd4" stroke-width="2" clip-path="url(#gclip)"/>
<circle cx="121.8" cy="105.7" r="2.2" fill="white" clip-path="url(#gclip)"/>
<circle cx="313.3" cy="145.6" r="5.5" fill="#003a50" stroke="#00bcd4" stroke-width="2" clip-path="url(#gclip)"/>
<circle cx="313.3" cy="145.6" r="2.2" fill="white" clip-path="url(#gclip)"/>
<circle cx="133.6" cy="297.9" r="5.5" fill="#003a50" stroke="#00bcd4" stroke-width="2" clip-path="url(#gclip)"/>
<circle cx="133.6" cy="297.9" r="2.2" fill="white" clip-path="url(#gclip)"/>
<circle cx="87.7" cy="139.1" r="5.5" fill="#003a50" stroke="#00bcd4" stroke-width="2" clip-path="url(#gclip)"/>
<circle cx="87.7" cy="139.1" r="2.2" fill="white" clip-path="url(#gclip)"/>
<text x="202.7" y="182.8" text-anchor="start" font-family="system-ui,sans-serif" font-size="9" font-weight="700" fill="#003a50" clip-path="url(#gclip)">Dubai</text>
<text x="137.5" y="247.9" text-anchor="end" font-family="system-ui,sans-serif" font-size="9" font-weight="700" fill="#003a50" clip-path="url(#gclip)">Nairobi</text>
<text x="71.1" y="214.9" text-anchor="end" font-family="system-ui,sans-serif" font-size="9" font-weight="700" fill="#003a50" clip-path="url(#gclip)">Lagos</text>
<text x="245.0" y="197.2" text-anchor="start" font-family="system-ui,sans-serif" font-size="9" font-weight="700" fill="#003a50" clip-path="url(#gclip)">Mumbai</text>
<text x="315.1" y="232.5" text-anchor="start" font-family="system-ui,sans-serif" font-size="9" font-weight="700" fill="#003a50" clip-path="url(#gclip)">Singapore</text>
<text x="112.8" y="109.7" text-anchor="end" font-family="system-ui,sans-serif" font-size="9" font-weight="700" fill="#003a50" clip-path="url(#gclip)">London</text>
<text x="322.3" y="149.6" text-anchor="start" font-family="system-ui,sans-serif" font-size="9" font-weight="700" fill="#003a50" clip-path="url(#gclip)">Shanghai</text>
<text x="124.6" y="301.9" text-anchor="end" font-family="system-ui,sans-serif" font-size="9" font-weight="700" fill="#003a50" clip-path="url(#gclip)">Johannesburg</text>
<text x="78.7" y="134.1" text-anchor="end" font-family="system-ui,sans-serif" font-size="9" font-weight="700" fill="#003a50" clip-path="url(#gclip)">Casablanca</text>
<circle cx="200" cy="205" r="148" fill="none" stroke="#1a8aad" stroke-width="2" stroke-opacity="0.5"/>
<text x="200" y="404" text-anchor="middle" font-family="system-ui,sans-serif" font-size="10.5" font-weight="700" letter-spacing="0.1em" fill="#007090">GLOBAL SETTLEMENT NETWORK</text>
</svg>