<svg xmlns="http://www.w3.org/2000/svg" viewBox="0 0 400 400" width="400" height="400" fill="none">
<defs>
  <radialGradient id="h-ring-bg" cx="50%" cy="50%" r="50%">
    <stop offset="0%"   stop-color="#e8fff2"/>
    <stop offset="100%" stop-color="#d0f5e4"/>
  </radialGradient>
  <radialGradient id="h-center" cx="45%" cy="38%" r="65%">
    <stop offset="0%"   stop-color="#0d4a24"/>
    <stop offset="100%" stop-color="#072a14"/>
  </radialGradient>
  <radialGradient id="h-hook" cx="50%" cy="50%" r="50%">
    <stop offset="0%"   stop-color="#00d44a"/>
    <stop offset="100%" stop-color="#007a28"/>
  </radialGradient>
  <radialGradient id="h-outer" cx="45%" cy="38%" r="65%">
    <stop offset="0%"   stop-color="#0f3d1f"/>
    <stop offset="100%" stop-color="#071a0f"/>
  </radialGradient>
  <filter id="h-glow" x="-40%" y="-40%" width="180%" height="180%">
    <feGaussianBlur stdDeviation="3" result="blur"/>
    <feMerge><feMergeNode in="blur"/><feMergeNode in="SourceGraphic"/></feMerge>
  </filter>
  <filter id="h-glow-sm" x="-30%" y="-30%" width="160%" height="160%">
    <feGaussianBlur stdDeviation="1.5" result="blur"/>
    <feMerge><feMergeNode in="blur"/><feMergeNode in="SourceGraphic"/></feMerge>
  </filter>
</defs>
<circle cx="200" cy="200" r="195" fill="url(#h-ring-bg)"/>
<circle cx="200" cy="200" r="175" fill="none" stroke="#00c940" stroke-width="1" stroke-opacity="0.1"/>
<circle cx="200" cy="200" r="155" stroke="#00c940" stroke-width="1" stroke-opacity="0.2" stroke-dasharray="5 7" fill="none"/>
<circle cx="200" cy="200" r="104" stroke="#007a28" stroke-width="1.5" stroke-opacity="0.35" stroke-dasharray="6 5" fill="none"/>
<line x1="200.0" y1="45.0" x2="200.0" y2="96.0" stroke="#00a030" stroke-width="1.5" stroke-opacity="0.4"/>
<line x1="200.0" y1="96.0" x2="200.0" y2="140.0" stroke="#007a28" stroke-width="2" stroke-opacity="0.65"/>
<circle cx="200.0" cy="96.0" r="10" fill="#e0f8ea" stroke="#00c940" stroke-width="1.5"/>
<circle cx="200.0" cy="96.0" r="4.5" fill="url(#h-hook)" filter="url(#h-glow-sm)"/>
<circle cx="200.0" cy="45.0" r="25" fill="url(#h-outer)" stroke="#00c940" stroke-width="1.8" filter="url(#h-glow-sm)"/>
<circle cx="200.0" cy="45.0" r="21" fill="none" stroke="#00c940" stroke-width="0.7" stroke-opacity="0.4"/>
<text x="200.0" y="49.0" text-anchor="middle" font-family="system-ui,sans-serif" font-size="10.5" font-weight="700" fill="#a0ffc0" letter-spacing="0.03em">Send</text>
<line x1="334.2" y1="122.5" x2="290.1" y2="148.0" stroke="#00a030" stroke-width="1.5" stroke-opacity="0.4"/>
<line x1="290.1" y1="148.0" x2="252.0" y2="170.0" stroke="#007a28" stroke-width="2" stroke-opacity="0.65"/>
<circle cx="290.1" cy="148.0" r="10" fill="#e0f8ea" stroke="#00c940" stroke-width="1.5"/>
<circle cx="290.1" cy="148.0" r="4.5" fill="url(#h-hook)" filter="url(#h-glow-sm)"/>
<circle cx="334.2" cy="122.5" r="25" fill="url(#h-outer)" stroke="#00c940" stroke-width="1.8" filter="url(#h-glow-sm)"/>
<circle cx="334.2" cy="122.5" r="21" fill="none" stroke="#00c940" stroke-width="0.7" stroke-opacity="0.4"/>
<text x="334.2" y="126.5" text-anchor="middle" font-family="system-ui,sans-serif" font-size="10.5" font-weight="700" fill="#a0ffc0" letter-spacing="0.03em">Receive</text>
<line x1="334.2" y1="277.5" x2="290.1" y2="252.0" stroke="#00a030" stroke-width="1.5" stroke-opacity="0.4"/>
<line x1="290.1" y1="252.0" x2="252.0" y2="230.0" stroke="#007a28" stroke-width="2" stroke-opacity="0.65"/>
<circle cx="290.1" cy="252.0" r="10" fill="#e0f8ea" stroke="#00c940" stroke-width="1.5"/>
<circle cx="290.1" cy="252.0" r="4.5" fill="url(#h-hook)" filter="url(#h-glow-sm)"/>
<circle cx="334.2" cy="277.5" r="25" fill="url(#h-outer)" stroke="#00c940" stroke-width="1.8" filter="url(#h-glow-sm)"/>
<circle cx="334.2" cy="277.5" r="21" fill="none" stroke="#00c940" stroke-width="0.7" stroke-opacity="0.4"/>
<text x="334.2" y="281.5" text-anchor="middle" font-family="system-ui,sans-serif" font-size="10.5" font-weight="700" fill="#a0ffc0" letter-spacing="0.03em">Trade</text>
<line x1="200.0" y1="355.0" x2="200.0" y2="304.0" stroke="#00a030" stroke-width="1.5" stroke-opacity="0.4"/>
<line x1="200.0" y1="304.0" x2="200.0" y2="260.0" stroke="#007a28" stroke-width="2" stroke-opacity="0.65"/>
<circle cx="200.0" cy="304.0" r="10" fill="#e0f8ea" stroke="#00c940" stroke-width="1.5"/>
<circle cx="200.0" cy="304.0" r="4.5" fill="url(#h-hook)" filter="url(#h-glow-sm)"/>
<circle cx="200.0" cy="355.0" r="25" fill="url(#h-outer)" stroke="#00c940" stroke-width="1.8" filter="url(#h-glow-sm)"/>
<circle cx="200.0" cy="355.0" r="21" fill="none" stroke="#00c940" stroke-width="0.7" stroke-opacity="0.4"/>
<text x="200.0" y="359.0" text-anchor="middle" font-family="system-ui,sans-serif" font-size="10.5" font-weight="700" fill="#a0ffc0" letter-spacing="0.03em">Escrow</text>
<line x1="65.8" y1="277.5" x2="109.9" y2="252.0" stroke="#00a030" stroke-width="1.5" stroke-opacity="0.4"/>
<line x1="109.9" y1="252.0" x2="148.0" y2="230.0" stroke="#007a28" stroke-width="2" stroke-opacity="0.65"/>
<circle cx="109.9" cy="252.0" r="10" fill="#e0f8ea" stroke="#00c940" stroke-width="1.5"/>
<circle cx="109.9" cy="252.0" r="4.5" fill="url(#h-hook)" filter="url(#h-glow-sm)"/>
<circle cx="65.8" cy="277.5" r="25" fill="url(#h-outer)" stroke="#00c940" stroke-width="1.8" filter="url(#h-glow-sm)"/>
<circle cx="65.8" cy="277.5" r="21" fill="none" stroke="#00c940" stroke-width="0.7" stroke-opacity="0.4"/>
<text x="65.8" y="281.5" text-anchor="middle" font-family="system-ui,sans-serif" font-size="10.5" font-weight="700" fill="#a0ffc0" letter-spacing="0.03em">NFT</text>
<line x1="65.8" y1="122.5" x2="109.9" y2="148.0" stroke="#00a030" stroke-width="1.5" stroke-opacity="0.4"/>
<line x1="109.9" y1="148.0" x2="148.0" y2="170.0" stroke="#007a28" stroke-width="2" stroke-opacity="0.65"/>
<circle cx="109.9" cy="148.0" r="10" fill="#e0f8ea" stroke="#00c940" stroke-width="1.5"/>
<circle cx="109.9" cy="148.0" r="4.5" fill="url(#h-hook)" filter="url(#h-glow-sm)"/>
<circle cx="65.8" cy="122.5" r="25" fill="url(#h-outer)" stroke="#00c940" stroke-width="1.8" filter="url(#h-glow-sm)"/>
<circle cx="65.8" cy="122.5" r="21" fill="none" stroke="#00c940" stroke-width="0.7" stroke-opacity="0.4"/>
<text x="65.8" y="126.5" text-anchor="middle" font-family="system-ui,sans-serif" font-size="10.5" font-weight="700" fill="#a0ffc0" letter-spacing="0.03em">Remit</text>
<circle cx="200" cy="200" r="85" fill="#00d44a" fill-opacity="0.08"/>
<circle cx="200" cy="200" r="60" fill="url(#h-center)" stroke="#00c940" stroke-width="3" filter="url(#h-glow)"/>
<circle cx="200" cy="200" r="53" fill="none" stroke="#00c940" stroke-width="0.8" stroke-opacity="0.3"/>
<text x="200" y="191" text-anchor="middle" font-family="system-ui,sans-serif" font-size="13.5" font-weight="800" fill="#c0ffe0" letter-spacing="-0.01em">ACCOUNT</text>
<text x="200" y="209" text-anchor="middle" font-family="ui-monospace,monospace" font-size="11" font-weight="700" fill="#00e055" letter-spacing="0.1em">+ HOOKS</text>
<text x="200" y="225" text-anchor="middle" font-family="ui-monospace,monospace" font-size="8" fill="#00c940" letter-spacing="0.1em" opacity="0.7">ON-LEDGER LOGIC</text>
</svg>