<svg xmlns="http://www.w3.org/2000/svg" viewBox="0 0 160 80" width="160" height="80" fill="none">
  <defs>
    <linearGradient id="bgGrad" x1="0" y1="0" x2="160" y2="80" gradientUnits="userSpaceOnUse">
      <stop offset="0%" stop-color="#0b1f26"/>
      <stop offset="100%" stop-color="#003d50"/>
    </linearGradient>
    <linearGradient id="ringGrad" x1="0" y1="0" x2="1" y2="1">
      <stop offset="0%" stop-color="#00c4e8"/>
      <stop offset="100%" stop-color="#00c940"/>
    </linearGradient>
    <radialGradient id="glowCore" cx="50%" cy="50%" r="50%">
      <stop offset="0%" stop-color="#00c4e8" stop-opacity="0.35"/>
      <stop offset="100%" stop-color="#00c4e8" stop-opacity="0"/>
    </radialGradient>
  </defs>

  <!-- Dark background -->
  <rect width="160" height="80" rx="10" fill="url(#bgGrad)"/>

  <!-- Glow halo behind central icon -->
  <circle cx="80" cy="38" r="28" fill="url(#glowCore)"/>

  <!-- Outer dashed ring -->
  <circle cx="80" cy="38" r="26" stroke="url(#ringGrad)" stroke-width="1.2" stroke-dasharray="5 3" opacity="0.6"/>

  <!-- Middle ring -->
  <circle cx="80" cy="38" r="19" stroke="#00c4e8" stroke-width="0.8" stroke-dasharray="2 4" opacity="0.4"/>

  <!-- Central megaphone / broadcast icon -->
  <!-- Body of megaphone -->
  <path d="M68 33 L75 33 L85 25 L85 51 L75 43 L68 43 Z"
        fill="none"
        stroke="url(#ringGrad)"
        stroke-width="1.6"
        stroke-linejoin="round"
        stroke-linecap="round"/>
  <!-- Sound waves -->
  <path d="M88 32 Q92 38 88 44" stroke="#00c940" stroke-width="1.5" stroke-linecap="round" fill="none"/>
  <path d="M91 28 Q97 38 91 48" stroke="#00c940" stroke-width="1.2" stroke-linecap="round" fill="none" opacity="0.6"/>

  <!-- Three sparkle dots -->
  <circle cx="65" cy="22" r="1.5" fill="#00c4e8" opacity="0.9"/>
  <circle cx="95" cy="20" r="1" fill="#00c940" opacity="0.7"/>
  <circle cx="62" cy="53" r="1" fill="#00c4e8" opacity="0.6"/>

  <!-- Bottom label pill -->
  <rect x="30" y="62" width="100" height="13" rx="6.5" fill="#00c4e8" fill-opacity="0.12" stroke="#00c4e8" stroke-opacity="0.3" stroke-width="0.8"/>
  <text
    x="80" y="72"
    text-anchor="middle"
    font-family="ui-monospace, 'SF Mono', monospace"
    font-size="7.5"
    font-weight="700"
    letter-spacing="0.18em"
    fill="#00c4e8"
  >COMING SOON</text>
</svg>
