<svg width="983" height="220" viewBox="0 0 983 220" fill="none" xmlns="http://www.w3.org/2000/svg">
<path d="M184.073 156.081H160.739C176.582 139.606 187.518 118.338 190.388 95.0894C196.817 42.7084 159.476 0 107.095 0C54.7143 0 7.15531 42.7084 0.7261 95.0894C-5.73181 147.499 31.6093 189.92 83.9901 189.92H130.602L128.191 210.873C127.387 215.982 130.889 220 135.969 220C138.667 220 141.336 218.651 143.231 216.785L188.637 168.968C189.986 167.361 190.79 165.753 191.048 163.859C191.593 159.554 188.35 156.081 184.073 156.081ZM88.0371 156.081C55.8049 156.081 32.9583 128.671 36.9765 95.0894C41.2818 61.2498 70.8447 33.8395 103.077 33.8395C135.309 33.8395 158.156 61.2498 154.109 95.0894C149.803 128.671 120.269 156.081 88.0371 156.081Z" fill="#012169"/>
<path d="M340.067 52.9264L324.482 179.444C323.679 185.357 318.311 189.921 312.657 189.921C309.701 189.921 307.003 188.859 305.396 186.706L292.509 171.666C280.138 183.75 264.036 189.921 248.71 189.921C222.103 189.921 198.481 171.379 203.045 132.689H203.303L212.172 52.8977H246.557L237.688 125.973C234.732 149.623 247.906 160.903 262.4 160.903C276.895 160.903 293.57 149.078 296.527 126.26L305.396 52.9264H340.039H340.067Z" fill="#012169"/>
<path d="M474.135 179.731C473.59 185.385 468.481 189.949 462.855 189.949C459.641 189.949 456.943 188.342 455.335 185.931L443.797 168.738C431.168 182.716 413.718 189.949 396.784 189.949C366.417 189.949 337.945 167.102 343.599 120.634C348.421 82.4892 383.093 51.8643 420.979 51.8643C458.866 51.8643 486.247 82.4892 481.425 120.634V120.892L474.164 179.731H474.135ZM447.012 120.605C449.71 99.9112 436.277 83.0058 417.191 83.0058C398.104 83.0058 380.653 99.9399 377.955 120.605C375.544 141.299 388.977 158.205 408.035 158.205C427.093 158.205 444.314 141.558 446.983 120.864V120.605H447.012Z" fill="#012169"/>
<path d="M590.462 115.783H590.204C593.16 92.1329 580.273 80.8531 565.75 80.8531C551.227 80.8531 534.58 92.6782 531.623 115.783L522.496 188.858H488.111L503.696 62.3403C504.5 56.7148 509.609 51.8642 515.522 51.8642C518.478 51.8642 520.889 52.9548 522.783 55.0788L535.67 70.1186C548.041 58.0351 564.142 51.8354 579.469 51.8354C605.789 51.8354 629.697 70.3769 624.876 109.067L615.748 188.858H581.364L590.491 115.783H590.462Z" fill="#012169"/>
<path d="M699.241 189.662C656.533 189.662 645.253 176.488 649.529 141.3L656.504 84.3551H641.722C637.417 84.3551 634.203 80.8535 634.748 76.5769C635.006 74.7113 635.81 73.0753 637.159 71.468L682.565 23.6506C684.459 21.7563 687.129 20.436 689.827 20.436C694.936 20.436 698.437 24.4543 697.605 29.5632L694.907 52.9266H728.488L724.47 84.3551H690.889L684.718 135.932C682.565 153.67 688.478 159.583 724.212 160.099L720.71 188.83C712.932 189.375 705.67 189.634 699.212 189.634L699.241 189.662Z" fill="#012169"/>
<path d="M868.493 120.893C863.93 159.037 829.258 189.921 791.113 189.921C752.968 189.921 726.104 159.037 730.667 120.893C735.231 82.7477 769.902 52.1228 808.047 52.1228C846.192 52.1228 873.057 82.7477 868.493 120.893ZM834.108 120.893C836.519 100.198 823.374 83.2931 804.287 83.2931C785.201 83.2931 767.75 100.227 765.052 120.893C762.641 141.587 775.786 158.492 794.873 158.492C813.96 158.492 831.41 141.558 834.108 120.893Z" fill="#012169"/>
<path d="M974.093 156.339L970.075 188.858H861.008L862.902 173.819L928.457 85.4455H877.942L881.702 52.9263H982.704L980.809 67.9661L917.407 156.339H974.093Z" fill="#012169"/>
</svg>
